<mxfile host="app.diagrams.net" modified="2023-12-09T12:31:01.697Z" agent="Mozilla/5.0 (Windows NT 10.0; Win64; x64; rv:120.0) Gecko/20100101 Firefox/120.0" etag="Nnc3j0sYnJyxh-lRbV2G" version="22.1.7" type="device">
  <diagram id="prtHgNgQTEPvFCAcTncT" name="Page-1">
    <mxGraphModel dx="1434" dy="698" grid="1" gridSize="10" guides="1" tooltips="1" connect="1" arrows="1" fold="1" page="1" pageScale="1" pageWidth="827" pageHeight="1169" math="0" shadow="0">
      <root>
        <mxCell id="0" />
        <mxCell id="1" parent="0" />
        <mxCell id="dNxyNK7c78bLwvsdeMH5-19" value="Datapool" style="swimlane;html=1;childLayout=stackLayout;resizeParent=1;resizeParentMax=0;horizontal=0;startSize=20;horizontalStack=0;strokeColor=#787878;" parent="1" vertex="1">
          <mxGeometry x="40" y="122" width="640" height="440" as="geometry" />
        </mxCell>
        <mxCell id="dNxyNK7c78bLwvsdeMH5-20" value="./www/js.php" style="swimlane;html=1;startSize=20;horizontal=0;" parent="dNxyNK7c78bLwvsdeMH5-19" vertex="1">
          <mxGeometry x="20" width="620" height="120" as="geometry" />
        </mxCell>
        <mxCell id="dNxyNK7c78bLwvsdeMH5-23" value="Browser" style="ellipse;whiteSpace=wrap;html=1;fillColor=#dae8fc;strokeColor=#6c8ebf;" parent="dNxyNK7c78bLwvsdeMH5-20" vertex="1">
          <mxGeometry x="28" y="30" width="60" height="60" as="geometry" />
        </mxCell>
        <mxCell id="dNxyNK7c78bLwvsdeMH5-24" value="Creates instance of&lt;br&gt;Root" style="rounded=0;whiteSpace=wrap;html=1;fontFamily=Helvetica;fontSize=12;fontColor=#000000;align=center;" parent="dNxyNK7c78bLwvsdeMH5-20" vertex="1">
          <mxGeometry x="111" y="30" width="121" height="60" as="geometry" />
        </mxCell>
        <mxCell id="dNxyNK7c78bLwvsdeMH5-32" value="Browser" style="ellipse;whiteSpace=wrap;html=1;fillColor=#dae8fc;strokeColor=#6c8ebf;" parent="dNxyNK7c78bLwvsdeMH5-20" vertex="1">
          <mxGeometry x="537" y="30" width="60" height="60" as="geometry" />
        </mxCell>
        <mxCell id="dNxyNK7c78bLwvsdeMH5-25" value="" style="edgeStyle=orthogonalEdgeStyle;rounded=0;orthogonalLoop=1;jettySize=auto;html=1;entryX=0;entryY=0.5;entryDx=0;entryDy=0;" parent="dNxyNK7c78bLwvsdeMH5-20" source="dNxyNK7c78bLwvsdeMH5-23" target="dNxyNK7c78bLwvsdeMH5-24" edge="1">
          <mxGeometry relative="1" as="geometry" />
        </mxCell>
        <mxCell id="hF1_7_iLyHvrhmtnyJ__-1" value="&lt;div&gt;./php/Root.php&lt;/div&gt;" style="swimlane;html=1;startSize=20;horizontal=0;" parent="dNxyNK7c78bLwvsdeMH5-19" vertex="1">
          <mxGeometry x="20" y="120" width="620" height="110" as="geometry" />
        </mxCell>
        <mxCell id="hF1_7_iLyHvrhmtnyJ__-3" value="method run" style="rounded=0;whiteSpace=wrap;html=1;fontFamily=Helvetica;fontSize=12;fontColor=#000000;align=center;" parent="hF1_7_iLyHvrhmtnyJ__-1" vertex="1">
          <mxGeometry x="216" y="50" width="280" height="20" as="geometry" />
        </mxCell>
        <mxCell id="hF1_7_iLyHvrhmtnyJ__-17" value="&lt;div&gt;method&lt;/div&gt;&lt;div&gt;__construct&lt;/div&gt;" style="rounded=0;whiteSpace=wrap;html=1;fontFamily=Helvetica;fontSize=12;fontColor=#000000;align=center;" parent="hF1_7_iLyHvrhmtnyJ__-1" vertex="1">
          <mxGeometry x="102" y="35" width="78" height="50" as="geometry" />
        </mxCell>
        <mxCell id="dNxyNK7c78bLwvsdeMH5-21" value="../php/Foundation/Container.php" style="swimlane;html=1;startSize=20;horizontal=0;" parent="dNxyNK7c78bLwvsdeMH5-19" vertex="1">
          <mxGeometry x="20" y="230" width="620" height="210" as="geometry" />
        </mxCell>
        <mxCell id="dNxyNK7c78bLwvsdeMH5-26" value="method jsCall" style="rounded=0;whiteSpace=wrap;html=1;fontFamily=Helvetica;fontSize=12;fontColor=#000000;align=center;" parent="dNxyNK7c78bLwvsdeMH5-21" vertex="1">
          <mxGeometry x="350" y="100" width="100" height="40" as="geometry" />
        </mxCell>
        <mxCell id="hF1_7_iLyHvrhmtnyJ__-22" value="&lt;div&gt;method&lt;/div&gt;&lt;div&gt;__construct&lt;/div&gt;" style="rounded=0;whiteSpace=wrap;html=1;fontFamily=Helvetica;fontSize=12;fontColor=#000000;align=center;" parent="dNxyNK7c78bLwvsdeMH5-21" vertex="1">
          <mxGeometry x="168" y="95" width="78" height="50" as="geometry" />
        </mxCell>
        <mxCell id="hF1_7_iLyHvrhmtnyJ__-2" value="" style="edgeStyle=orthogonalEdgeStyle;rounded=0;orthogonalLoop=1;jettySize=auto;html=1;endArrow=classic;endFill=1;entryX=0;entryY=0.5;entryDx=0;entryDy=0;" parent="dNxyNK7c78bLwvsdeMH5-19" source="hF1_7_iLyHvrhmtnyJ__-3" target="dNxyNK7c78bLwvsdeMH5-32" edge="1">
          <mxGeometry relative="1" as="geometry" />
        </mxCell>
        <mxCell id="hF1_7_iLyHvrhmtnyJ__-20" value="" style="endArrow=classic;html=1;rounded=0;entryX=0.5;entryY=0;entryDx=0;entryDy=0;exitX=0.25;exitY=1;exitDx=0;exitDy=0;" parent="dNxyNK7c78bLwvsdeMH5-19" source="dNxyNK7c78bLwvsdeMH5-24" target="hF1_7_iLyHvrhmtnyJ__-17" edge="1">
          <mxGeometry width="50" height="50" relative="1" as="geometry">
            <mxPoint x="136" y="290" as="sourcePoint" />
            <mxPoint x="186" y="240" as="targetPoint" />
          </mxGeometry>
        </mxCell>
        <mxCell id="hF1_7_iLyHvrhmtnyJ__-25" value="" style="endArrow=classic;html=1;rounded=0;entryX=0;entryY=0.5;entryDx=0;entryDy=0;exitX=0.5;exitY=1;exitDx=0;exitDy=0;edgeStyle=orthogonalEdgeStyle;" parent="dNxyNK7c78bLwvsdeMH5-19" source="hF1_7_iLyHvrhmtnyJ__-17" target="hF1_7_iLyHvrhmtnyJ__-22" edge="1">
          <mxGeometry width="50" height="50" relative="1" as="geometry">
            <mxPoint x="136" y="290" as="sourcePoint" />
            <mxPoint x="186" y="240" as="targetPoint" />
          </mxGeometry>
        </mxCell>
        <mxCell id="hF1_7_iLyHvrhmtnyJ__-28" value="" style="endArrow=classic;html=1;rounded=0;entryX=0;entryY=0.5;entryDx=0;entryDy=0;exitX=0.75;exitY=1;exitDx=0;exitDy=0;edgeStyle=orthogonalEdgeStyle;" parent="dNxyNK7c78bLwvsdeMH5-19" source="dNxyNK7c78bLwvsdeMH5-24" target="hF1_7_iLyHvrhmtnyJ__-3" edge="1">
          <mxGeometry width="50" height="50" relative="1" as="geometry">
            <mxPoint x="136" y="290" as="sourcePoint" />
            <mxPoint x="186" y="240" as="targetPoint" />
          </mxGeometry>
        </mxCell>
        <mxCell id="hF1_7_iLyHvrhmtnyJ__-30" value="" style="endArrow=classic;html=1;rounded=0;entryX=0;entryY=0.5;entryDx=0;entryDy=0;exitX=0.25;exitY=1;exitDx=0;exitDy=0;edgeStyle=orthogonalEdgeStyle;" parent="dNxyNK7c78bLwvsdeMH5-19" source="hF1_7_iLyHvrhmtnyJ__-3" target="dNxyNK7c78bLwvsdeMH5-26" edge="1">
          <mxGeometry width="50" height="50" relative="1" as="geometry">
            <mxPoint x="136" y="290" as="sourcePoint" />
            <mxPoint x="186" y="240" as="targetPoint" />
            <Array as="points">
              <mxPoint x="306" y="350" />
            </Array>
          </mxGeometry>
        </mxCell>
        <mxCell id="hF1_7_iLyHvrhmtnyJ__-16" value="" style="edgeStyle=orthogonalEdgeStyle;rounded=0;orthogonalLoop=1;jettySize=auto;html=1;endArrow=classic;endFill=1;entryX=1;entryY=1;entryDx=0;entryDy=0;exitX=1;exitY=0.5;exitDx=0;exitDy=0;" parent="dNxyNK7c78bLwvsdeMH5-19" source="dNxyNK7c78bLwvsdeMH5-26" target="hF1_7_iLyHvrhmtnyJ__-3" edge="1">
          <mxGeometry relative="1" as="geometry">
            <mxPoint x="457" y="261" as="sourcePoint" />
            <mxPoint x="309" y="315" as="targetPoint" />
            <Array as="points">
              <mxPoint x="470" y="348" />
              <mxPoint x="516" y="348" />
            </Array>
          </mxGeometry>
        </mxCell>
      </root>
    </mxGraphModel>
  </diagram>
</mxfile>
